# xmcd CD database file
#
# Track frame offsets:
#	150
#	46760
#	109877
#	132128
#
# Disc length: 3586 seconds
#
# Revision: 0
# Processed by: cddbd v1.5.2PL0 Copyright (c) Steve Scherf et al.
# Submitted via: CDex 1.70beta3
#
DISCID=2c0e0004
DTITLE=Hijokaidan featuring Akira Sakata - Made in Studio
DYEAR=2012
DGENRE=Jazz
TTITLE0=NJQ
TTITLE1=Copper Median Co.
TTITLE2=Uroboros in a Klein Bottle
TTITLE3=auto-noda-fe
EXTD=YEAR: 2012
EXTT0=
EXTT1=
EXTT2=
EXTT3=
PLAYORDER=
